# Blender 5.0.1
# www.blender.org
mtllib anchor2.mtl
o Plane.001
v 0.092147 -0.114869 0.445786
v 0.106224 -0.148235 0.429385
v 0.092147 -0.112169 0.438415
v 0.106224 -0.464267 0.281031
v 0.092147 -0.475401 0.289805
v 0.092147 -0.283719 0.434194
v 0.106224 -0.279688 0.420361
v 0.106224 -0.378996 0.366302
v 0.092147 -0.387512 0.377694
v 0.092147 -0.538179 0.187267
v 0.106224 -0.525093 0.181683
v 0.092147 -0.569568 0.067989
v 0.106224 -0.556671 0.061686
v 0.092147 -0.638455 -0.022291
v 0.092147 -0.638455 -0.044672
v 0.106224 -0.629288 -0.033482
v 0.092147 -0.294556 0.304417
v 0.106224 -0.317747 0.304846
v 0.092147 -0.310550 0.282796
v 0.106224 -0.363921 0.172919
v 0.092147 -0.349845 0.170526
v 0.092147 -0.349845 0.063232
v 0.106224 -0.363921 0.043043
v 0.092147 -0.339559 0.039545
v 0.092147 -0.337112 0.037258
v 0.106224 -0.332933 0.014090
v 0.092147 -0.312813 0.026314
v 0.106224 -0.283771 0.009407
v 0.092147 -0.282882 0.023463
v 0.092147 0.180162 0.008908
v 0.106224 0.208308 -0.006060
v 0.092147 0.194231 0.022543
v 0.092147 0.194231 0.213452
v 0.106224 0.208308 0.233798
v 0.092147 0.183768 0.236945
v 0.092147 0.183768 0.236945
v 0.106224 0.187133 0.252855
v 0.092147 0.172743 0.260427
v 0.092147 0.171775 0.317156
v 0.106224 0.185856 0.317334
v 0.092147 0.185288 0.331404
v 0.092147 0.336348 0.333131
v 0.106224 0.335740 0.319045
v 0.092147 0.349837 0.319250
v 0.092147 0.348916 0.297156
v 0.106224 0.334612 0.259426
v 0.092147 0.335740 0.244252
v 0.092147 0.327439 0.240102
v 0.106224 0.300772 0.242506
v 0.092147 0.314849 0.219730
v 0.106224 0.270639 -0.033482
v 0.092147 0.284715 -0.033482
v 0.092147 -0.114869 -0.512749
v 0.092147 -0.112169 -0.505378
v 0.106224 -0.148235 -0.496349
v 0.092147 -0.475401 -0.356768
v 0.106224 -0.464267 -0.347994
v 0.106224 -0.279688 -0.487324
v 0.092147 -0.283719 -0.501157
v 0.092147 -0.387512 -0.444657
v 0.106224 -0.378996 -0.433266
v 0.106224 -0.525093 -0.248646
v 0.092147 -0.538179 -0.254230
v 0.106224 -0.556671 -0.128649
v 0.092147 -0.569568 -0.134952
v 0.092147 -0.294556 -0.371380
v 0.092147 -0.310550 -0.349759
v 0.106224 -0.317747 -0.371809
v 0.092147 -0.349845 -0.237490
v 0.106224 -0.363921 -0.239882
v 0.092147 -0.349845 -0.130195
v 0.092147 -0.339559 -0.106508
v 0.106224 -0.363921 -0.110006
v 0.092147 -0.337112 -0.104222
v 0.092147 -0.312813 -0.093277
v 0.106224 -0.332933 -0.081053
v 0.092147 -0.282882 -0.090426
v 0.106224 -0.283771 -0.076371
v 0.092147 0.180162 -0.075871
v 0.092147 0.194231 -0.089506
v 0.106224 0.208308 -0.060903
v 0.092147 0.194231 -0.280415
v 0.092147 0.183768 -0.303909
v 0.106224 0.208308 -0.300761
v 0.092147 0.183768 -0.303909
v 0.092147 0.172743 -0.356319
v 0.106224 0.187133 -0.319818
v 0.092147 0.171775 -0.380503
v 0.092147 0.185288 -0.394751
v 0.106224 0.185856 -0.380681
v 0.092147 0.336348 -0.396478
v 0.092147 0.349837 -0.382597
v 0.106224 0.335740 -0.382393
v 0.092147 0.348916 -0.360503
v 0.092147 0.335740 -0.311215
v 0.106224 0.334612 -0.355317
v 0.092147 0.327439 -0.307065
v 0.092147 0.314849 -0.286693
v 0.106224 0.300772 -0.309470
v 0.050300 -0.114869 0.445786
v 0.050300 -0.112169 0.438415
v 0.036224 -0.148235 0.429385
v 0.050300 -0.475401 0.289805
v 0.036224 -0.464267 0.281031
v 0.036224 -0.279688 0.420361
v 0.050300 -0.283719 0.434194
v 0.050300 -0.387512 0.377694
v 0.036224 -0.378996 0.366302
v 0.036224 -0.525093 0.181683
v 0.050300 -0.538179 0.187267
v 0.036224 -0.556671 0.061686
v 0.050300 -0.569568 0.067989
v 0.050300 -0.638455 -0.022291
v 0.036224 -0.629288 -0.033482
v 0.050300 -0.638455 -0.044672
v 0.050300 -0.294556 0.304417
v 0.050300 -0.310550 0.282796
v 0.036224 -0.317747 0.304846
v 0.050300 -0.349845 0.170526
v 0.036224 -0.363921 0.172919
v 0.050300 -0.349845 0.063232
v 0.050300 -0.339559 0.039545
v 0.036224 -0.363921 0.043043
v 0.050300 -0.337112 0.037258
v 0.050300 -0.312813 0.026314
v 0.036224 -0.332933 0.014090
v 0.050300 -0.282882 0.023463
v 0.036224 -0.283771 0.009407
v 0.050300 0.180162 0.008908
v 0.050300 0.194231 0.022543
v 0.036224 0.208308 -0.006060
v 0.050300 0.194231 0.213452
v 0.050300 0.183768 0.236945
v 0.036224 0.208308 0.233798
v 0.050300 0.183768 0.236945
v 0.050300 0.172743 0.260427
v 0.036224 0.187133 0.252855
v 0.050300 0.171775 0.317156
v 0.050300 0.185288 0.331404
v 0.036224 0.185856 0.317334
v 0.050300 0.336348 0.333131
v 0.050300 0.349837 0.319250
v 0.036224 0.335740 0.319045
v 0.050300 0.348916 0.297156
v 0.050300 0.335740 0.244252
v 0.036224 0.334612 0.259426
v 0.050300 0.327439 0.240102
v 0.050300 0.314849 0.219730
v 0.036224 0.300772 0.242506
v 0.050300 0.284715 -0.033482
v 0.036224 0.270639 -0.033482
v 0.050300 -0.114869 -0.512749
v 0.036224 -0.148235 -0.496349
v 0.050300 -0.112169 -0.505378
v 0.036224 -0.464267 -0.347994
v 0.050300 -0.475401 -0.356768
v 0.050300 -0.283719 -0.501157
v 0.036224 -0.279688 -0.487324
v 0.036224 -0.378996 -0.433266
v 0.050300 -0.387512 -0.444657
v 0.050300 -0.538179 -0.254230
v 0.036224 -0.525093 -0.248646
v 0.050300 -0.569568 -0.134952
v 0.036224 -0.556671 -0.128649
v 0.050300 -0.294556 -0.371380
v 0.036224 -0.317747 -0.371809
v 0.050300 -0.310550 -0.349759
v 0.036224 -0.363921 -0.239882
v 0.050300 -0.349845 -0.237490
v 0.050300 -0.349845 -0.130195
v 0.036224 -0.363921 -0.110006
v 0.050300 -0.339559 -0.106508
v 0.050300 -0.337112 -0.104222
v 0.036224 -0.332933 -0.081053
v 0.050300 -0.312813 -0.093277
v 0.036224 -0.283771 -0.076371
v 0.050300 -0.282882 -0.090426
v 0.050300 0.180162 -0.075871
v 0.036224 0.208308 -0.060903
v 0.050300 0.194231 -0.089506
v 0.050300 0.194231 -0.280415
v 0.036224 0.208308 -0.300761
v 0.050300 0.183768 -0.303909
v 0.050300 0.183768 -0.303909
v 0.036224 0.187133 -0.319818
v 0.050300 0.172743 -0.356319
v 0.050300 0.171775 -0.380503
v 0.036224 0.185856 -0.380681
v 0.050300 0.185288 -0.394751
v 0.050300 0.336348 -0.396478
v 0.036224 0.335740 -0.382393
v 0.050300 0.349837 -0.382597
v 0.050300 0.348916 -0.360503
v 0.036224 0.334612 -0.355317
v 0.050300 0.335740 -0.311215
v 0.050300 0.327439 -0.307065
v 0.036224 0.300772 -0.309470
v 0.050300 0.314849 -0.286693
vn 0.4758 0.4996 0.7239
vn 0.9707 0.2257 0.0827
vn 0.4758 0.8490 -0.2300
vn 0.9143 -0.3181 0.2507
vn 0.3744 -0.7283 0.5739
vn 0.3704 -0.2598 0.8918
vn 0.9076 -0.1174 0.4030
vn 0.9124 -0.2450 0.3277
vn 0.3731 -0.5555 0.7431
vn 0.3730 -0.8534 0.3642
vn 0.9123 -0.3767 0.1608
vn 0.4056 -0.8212 0.4013
vn 0.9233 -0.3450 0.1686
vn 0.3375 -0.8835 0.3247
vn 0.3375 -0.8835 -0.3247
vn 0.8672 -0.4979 -0.0000
vn 0.4209 0.6220 -0.6603
vn 0.9342 0.2867 -0.2121
vn 0.4209 0.8134 -0.4015
vn 0.9231 0.3791 -0.0644
vn 0.4014 0.9029 -0.1535
vn 0.4370 0.8874 0.1471
vn 0.9393 0.3147 0.1367
vn 0.4370 0.7133 0.5479
vn 0.4249 0.5250 0.7375
vn 0.9355 0.1451 0.3222
vn 0.4249 0.2044 0.8818
vn 0.9235 0.0242 0.3829
vn 0.3856 0.0583 0.9208
vn 0.5043 -0.2326 0.8316
vn 0.9611 -0.1923 0.1984
vn 0.5043 -0.8239 0.2586
vn 0.4384 -0.8862 -0.1502
vn 0.9398 -0.3123 -0.1391
vn 0.7444 -0.5659 -0.3544
vn 0.6886 -0.6117 -0.3895
vn 0.8769 -0.4366 -0.2010
vn 0.3469 -0.9186 -0.1896
vn 0.3433 -0.8820 0.3228
vn 0.8771 -0.3447 0.3346
vn 0.3425 -0.3588 0.8683
vn 0.3436 0.3442 0.8738
vn 0.8772 0.3431 0.3359
vn 0.3399 0.8840 0.3210
vn 0.3468 0.9326 -0.1003
vn 0.8074 0.5285 -0.2624
vn 0.3140 0.7110 -0.6292
vn 0.4598 0.5597 -0.6894
vn 0.9471 0.2682 -0.1761
vn 0.4642 0.8479 -0.2560
vn 0.9403 0.3405 -0.0000
vn 0.4142 0.9102 -0.0000
vn 0.4758 0.4996 -0.7239
vn 0.4758 0.8490 0.2300
vn 0.9707 0.2257 -0.0827
vn 0.3744 -0.7283 -0.5739
vn 0.9143 -0.3181 -0.2507
vn 0.9076 -0.1174 -0.4030
vn 0.3704 -0.2598 -0.8918
vn 0.3731 -0.5555 -0.7431
vn 0.9124 -0.2450 -0.3277
vn 0.9123 -0.3767 -0.1608
vn 0.3730 -0.8534 -0.3642
vn 0.9233 -0.3450 -0.1686
vn 0.4056 -0.8212 -0.4013
vn 0.4209 0.6220 0.6603
vn 0.4209 0.8134 0.4015
vn 0.9342 0.2867 0.2121
vn 0.4014 0.9029 0.1535
vn 0.9231 0.3791 0.0644
vn 0.4370 0.8874 -0.1471
vn 0.4370 0.7133 -0.5479
vn 0.9393 0.3147 -0.1367
vn 0.4249 0.5250 -0.7375
vn 0.4249 0.2044 -0.8818
vn 0.9355 0.1451 -0.3222
vn 0.3856 0.0583 -0.9208
vn 0.9235 0.0242 -0.3829
vn 0.5043 -0.2326 -0.8316
vn 0.5043 -0.8239 -0.2586
vn 0.9611 -0.1923 -0.1984
vn 0.4384 -0.8862 0.1502
vn 0.4826 -0.7234 -0.4937
vn 0.9398 -0.3123 0.1391
vn 0.4645 -0.7913 0.3975
vn 0.3524 -0.9317 0.0884
vn 0.8377 -0.5111 0.1926
vn 0.3391 -0.8864 -0.3151
vn 0.3425 -0.3588 -0.8683
vn 0.8758 -0.3489 -0.3336
vn 0.3436 0.3442 -0.8738
vn 0.3436 0.8835 -0.3184
vn 0.8786 0.3427 -0.3325
vn 0.3647 0.9217 0.1317
vn 0.4410 0.7109 0.5479
vn 0.9068 0.4095 0.1002
vn 0.5493 0.6030 0.5785
vn 0.4642 0.8479 0.2560
vn 0.9593 0.2548 0.1218
vn -0.4758 0.4996 0.7239
vn -0.4758 0.8490 -0.2300
vn -0.9707 0.2257 0.0827
vn -0.3744 -0.7283 0.5739
vn -0.9143 -0.3181 0.2507
vn -0.9076 -0.1174 0.4030
vn -0.3704 -0.2598 0.8918
vn -0.3731 -0.5555 0.7431
vn -0.9124 -0.2450 0.3277
vn -0.9123 -0.3767 0.1608
vn -0.3730 -0.8534 0.3642
vn -0.9233 -0.3450 0.1686
vn -0.4056 -0.8212 0.4013
vn -0.3375 -0.8835 0.3247
vn -0.8672 -0.4979 -0.0000
vn -0.3375 -0.8835 -0.3247
vn -0.4209 0.6220 -0.6603
vn -0.4209 0.8134 -0.4015
vn -0.9342 0.2867 -0.2121
vn -0.4014 0.9029 -0.1535
vn -0.9231 0.3791 -0.0644
vn -0.4370 0.8874 0.1471
vn -0.4370 0.7133 0.5479
vn -0.9393 0.3147 0.1367
vn -0.4249 0.5250 0.7375
vn -0.4249 0.2044 0.8818
vn -0.9355 0.1451 0.3222
vn -0.3856 0.0583 0.9208
vn -0.9235 0.0242 0.3829
vn -0.5043 -0.2326 0.8316
vn -0.5043 -0.8239 0.2586
vn -0.9611 -0.1923 0.1984
vn -0.4384 -0.8862 -0.1502
vn -0.1402 -0.8392 -0.5255
vn -0.9398 -0.3123 -0.1391
vn -0.0201 -0.8433 -0.5370
vn -0.3469 -0.9186 -0.1896
vn -0.8769 -0.4366 -0.2010
vn -0.3433 -0.8820 0.3228
vn -0.3425 -0.3588 0.8683
vn -0.8771 -0.3447 0.3346
vn -0.3436 0.3442 0.8738
vn -0.3399 0.8840 0.3210
vn -0.8772 0.3431 0.3359
vn -0.3468 0.9326 -0.1003
vn -0.3140 0.7110 -0.6292
vn -0.8074 0.5285 -0.2624
vn -0.4598 0.5597 -0.6894
vn -0.4642 0.8479 -0.2560
vn -0.9471 0.2682 -0.1761
vn -0.4142 0.9102 -0.0000
vn -0.9403 0.3405 -0.0000
vn -0.4758 0.4996 -0.7239
vn -0.9707 0.2257 -0.0827
vn -0.4758 0.8490 0.2300
vn -0.9143 -0.3181 -0.2507
vn -0.3744 -0.7283 -0.5739
vn -0.3704 -0.2598 -0.8918
vn -0.9076 -0.1174 -0.4030
vn -0.9124 -0.2450 -0.3277
vn -0.3731 -0.5555 -0.7431
vn -0.3730 -0.8534 -0.3642
vn -0.9123 -0.3767 -0.1608
vn -0.4056 -0.8212 -0.4013
vn -0.9233 -0.3450 -0.1686
vn -0.4209 0.6220 0.6603
vn -0.9342 0.2867 0.2121
vn -0.4209 0.8134 0.4015
vn -0.9231 0.3791 0.0644
vn -0.4014 0.9029 0.1535
vn -0.4370 0.8874 -0.1471
vn -0.9393 0.3147 -0.1367
vn -0.4370 0.7133 -0.5479
vn -0.4249 0.5250 -0.7375
vn -0.9355 0.1451 -0.3222
vn -0.4249 0.2044 -0.8818
vn -0.9235 0.0242 -0.3829
vn -0.3856 0.0583 -0.9208
vn -0.5043 -0.2326 -0.8316
vn -0.9611 -0.1923 -0.1984
vn -0.5043 -0.8239 -0.2586
vn -0.4384 -0.8862 0.1502
vn -0.9398 -0.3123 0.1391
vn -0.5950 -0.8027 0.0418
vn -0.4347 -0.8969 -0.0812
vn -0.8377 -0.5111 0.1926
vn -0.3524 -0.9317 0.0884
vn -0.3391 -0.8864 -0.3151
vn -0.8758 -0.3489 -0.3336
vn -0.3425 -0.3588 -0.8683
vn -0.3436 0.3442 -0.8738
vn -0.8786 0.3427 -0.3325
vn -0.3436 0.8835 -0.3184
vn -0.3647 0.9217 0.1317
vn -0.9068 0.4095 0.1002
vn -0.4410 0.7109 0.5479
vn -0.5493 0.6030 0.5785
vn -0.9593 0.2548 0.1218
vn -0.4642 0.8479 0.2560
vt 0.000000 0.000000
s 1
f 1/1/1 2/1/2 3/1/3
f 14/1/14 15/1/15 16/1/16
f 17/1/17 18/1/18 19/1/19
f 22/1/22 23/1/23 24/1/24
f 25/1/25 26/1/26 27/1/27
f 30/1/30 31/1/31 32/1/32
f 33/1/33 34/1/34 35/1/35
f 36/1/36 37/1/37 38/1/38
f 39/1/39 40/1/40 41/1/41
f 42/1/42 43/1/43 44/1/44
f 45/1/45 46/1/46 47/1/47
f 48/1/48 49/1/49 50/1/50
f 53/1/53 54/1/54 55/1/55
f 66/1/66 67/1/67 68/1/68
f 71/1/71 72/1/72 73/1/73
f 74/1/74 75/1/75 76/1/76
f 79/1/79 80/1/80 81/1/81
f 82/1/82 83/1/83 84/1/84
f 85/1/85 86/1/86 87/1/87
f 88/1/88 89/1/89 90/1/90
f 91/1/91 92/1/92 93/1/93
f 94/1/94 95/1/95 96/1/96
f 97/1/97 98/1/98 99/1/99
f 100/1/100 101/1/101 102/1/102
f 113/1/113 114/1/114 115/1/115
f 116/1/116 117/1/117 118/1/118
f 121/1/121 122/1/122 123/1/123
f 124/1/124 125/1/125 126/1/126
f 129/1/129 130/1/130 131/1/131
f 132/1/132 133/1/133 134/1/134
f 135/1/135 136/1/136 137/1/137
f 138/1/138 139/1/139 140/1/140
f 141/1/141 142/1/142 143/1/143
f 144/1/144 145/1/145 146/1/146
f 147/1/147 148/1/148 149/1/149
f 152/1/152 153/1/153 154/1/154
f 165/1/165 166/1/166 167/1/167
f 170/1/170 171/1/171 172/1/172
f 173/1/173 174/1/174 175/1/175
f 178/1/178 179/1/179 180/1/180
f 181/1/181 182/1/182 183/1/183
f 184/1/184 185/1/185 186/1/186
f 187/1/187 188/1/188 189/1/189
f 190/1/190 191/1/191 192/1/192
f 193/1/193 194/1/194 195/1/195
f 196/1/196 197/1/197 198/1/198
f 1/1/1 6/1/6 7/1/7 2/1/2
f 5/1/5 10/1/10 11/1/11 4/1/4
f 9/1/9 5/1/5 4/1/4 8/1/8
f 6/1/6 9/1/9 8/1/8 7/1/7
f 10/1/10 12/1/12 13/1/13 11/1/11
f 12/1/12 14/1/14 16/1/16 13/1/13
f 17/1/17 3/1/3 2/1/2 18/1/18
f 21/1/21 19/1/19 18/1/18 20/1/20
f 22/1/22 21/1/21 20/1/20 23/1/23
f 25/1/25 24/1/24 23/1/23 26/1/26
f 29/1/29 27/1/27 26/1/26 28/1/28
f 30/1/30 29/1/29 28/1/28 31/1/31
f 33/1/33 32/1/32 31/1/31 34/1/34
f 36/1/36 35/1/35 34/1/34 37/1/37
f 39/1/39 38/1/38 37/1/37 40/1/40
f 42/1/42 41/1/41 40/1/40 43/1/43
f 45/1/45 44/1/44 43/1/43 46/1/46
f 48/1/48 47/1/47 46/1/46 49/1/49
f 52/1/52 50/1/50 49/1/49 51/1/51
f 55/1/55 58/1/58 59/1/59 53/1/53
f 57/1/57 62/1/62 63/1/63 56/1/56
f 61/1/61 57/1/57 56/1/56 60/1/60
f 58/1/58 61/1/61 60/1/60 59/1/59
f 62/1/62 64/1/64 65/1/65 63/1/63
f 64/1/64 16/1/16 15/1/15 65/1/65
f 68/1/68 55/1/55 54/1/54 66/1/66
f 70/1/70 68/1/68 67/1/67 69/1/69
f 73/1/73 70/1/70 69/1/69 71/1/71
f 76/1/76 73/1/73 72/1/72 74/1/74
f 78/1/78 76/1/76 75/1/75 77/1/77
f 81/1/81 78/1/78 77/1/77 79/1/79
f 84/1/84 81/1/81 80/1/80 82/1/82
f 87/1/87 84/1/84 83/1/83 85/1/85
f 90/1/90 87/1/87 86/1/86 88/1/88
f 93/1/93 90/1/90 89/1/89 91/1/91
f 96/1/96 93/1/93 92/1/92 94/1/94
f 99/1/99 96/1/96 95/1/95 97/1/97
f 51/1/51 99/1/99 98/1/98 52/1/52
f 102/1/102 105/1/105 106/1/106 100/1/100
f 104/1/104 109/1/109 110/1/110 103/1/103
f 108/1/108 104/1/104 103/1/103 107/1/107
f 105/1/105 108/1/108 107/1/107 106/1/106
f 109/1/109 111/1/111 112/1/112 110/1/110
f 111/1/111 114/1/114 113/1/113 112/1/112
f 118/1/118 102/1/102 101/1/101 116/1/116
f 120/1/120 118/1/118 117/1/117 119/1/119
f 123/1/123 120/1/120 119/1/119 121/1/121
f 126/1/126 123/1/123 122/1/122 124/1/124
f 128/1/128 126/1/126 125/1/125 127/1/127
f 131/1/131 128/1/128 127/1/127 129/1/129
f 134/1/134 131/1/131 130/1/130 132/1/132
f 137/1/137 134/1/134 133/1/133 135/1/135
f 140/1/140 137/1/137 136/1/136 138/1/138
f 143/1/143 140/1/140 139/1/139 141/1/141
f 146/1/146 143/1/143 142/1/142 144/1/144
f 149/1/149 146/1/146 145/1/145 147/1/147
f 151/1/151 149/1/149 148/1/148 150/1/150
f 152/1/152 157/1/157 158/1/158 153/1/153
f 156/1/156 161/1/161 162/1/162 155/1/155
f 160/1/160 156/1/156 155/1/155 159/1/159
f 157/1/157 160/1/160 159/1/159 158/1/158
f 161/1/161 163/1/163 164/1/164 162/1/162
f 163/1/163 115/1/115 114/1/114 164/1/164
f 165/1/165 154/1/154 153/1/153 166/1/166
f 169/1/169 167/1/167 166/1/166 168/1/168
f 170/1/170 169/1/169 168/1/168 171/1/171
f 173/1/173 172/1/172 171/1/171 174/1/174
f 177/1/177 175/1/175 174/1/174 176/1/176
f 178/1/178 177/1/177 176/1/176 179/1/179
f 181/1/181 180/1/180 179/1/179 182/1/182
f 184/1/184 183/1/183 182/1/182 185/1/185
f 187/1/187 186/1/186 185/1/185 188/1/188
f 190/1/190 189/1/189 188/1/188 191/1/191
f 193/1/193 192/1/192 191/1/191 194/1/194
f 196/1/196 195/1/195 194/1/194 197/1/197
f 150/1/150 198/1/198 197/1/197 151/1/151
f 3/1/3 101/1/101 100/1/100 1/1/1
f 14/1/14 113/1/113 115/1/115 15/1/15
f 19/1/19 117/1/117 116/1/116 17/1/17
f 24/1/24 122/1/122 121/1/121 22/1/22
f 27/1/27 125/1/125 124/1/124 25/1/25
f 32/1/32 130/1/130 129/1/129 30/1/30
f 35/1/35 133/1/133 132/1/132 33/1/33
f 38/1/38 136/1/136 135/1/135 36/1/36
f 41/1/41 139/1/139 138/1/138 39/1/39
f 44/1/44 142/1/142 141/1/141 42/1/42
f 47/1/47 145/1/145 144/1/144 45/1/45
f 50/1/50 148/1/148 147/1/147 48/1/48
f 53/1/53 152/1/152 154/1/154 54/1/54
f 66/1/66 165/1/165 167/1/167 67/1/67
f 71/1/71 170/1/170 172/1/172 72/1/72
f 74/1/74 173/1/173 175/1/175 75/1/75
f 79/1/79 178/1/178 180/1/180 80/1/80
f 82/1/82 181/1/181 183/1/183 83/1/83
f 85/1/85 184/1/184 186/1/186 86/1/86
f 88/1/88 187/1/187 189/1/189 89/1/89
f 91/1/91 190/1/190 192/1/192 92/1/92
f 94/1/94 193/1/193 195/1/195 95/1/95
f 97/1/97 196/1/196 198/1/198 98/1/98
f 6/1/6 1/1/1 100/1/100 106/1/106
f 2/1/2 7/1/7 8/1/8 4/1/4 11/1/11 13/1/13 16/1/16 51/1/51 49/1/49 46/1/46 43/1/43 40/1/40 37/1/37 34/1/34 31/1/31 28/1/28 26/1/26 23/1/23 20/1/20 18/1/18
f 3/1/3 17/1/17 116/1/116 101/1/101
f 10/1/10 5/1/5 103/1/103 110/1/110
f 5/1/5 9/1/9 107/1/107 103/1/103
f 9/1/9 6/1/6 106/1/106 107/1/107
f 12/1/12 10/1/10 110/1/110 112/1/112
f 14/1/14 12/1/12 112/1/112 113/1/113
f 55/1/55 68/1/68 70/1/70 73/1/73 76/1/76 78/1/78 81/1/81 84/1/84 87/1/87 90/1/90 93/1/93 96/1/96 99/1/99 51/1/51 16/1/16 64/1/64 62/1/62 57/1/57 61/1/61 58/1/58
f 65/1/65 15/1/15 115/1/115 163/1/163
f 19/1/19 21/1/21 119/1/119 117/1/117
f 21/1/21 22/1/22 121/1/121 119/1/119
f 24/1/24 25/1/25 124/1/124 122/1/122
f 27/1/27 29/1/29 127/1/127 125/1/125
f 29/1/29 30/1/30 129/1/129 127/1/127
f 32/1/32 33/1/33 132/1/132 130/1/130
f 35/1/35 36/1/36 135/1/135 133/1/133
f 38/1/38 39/1/39 138/1/138 136/1/136
f 41/1/41 42/1/42 141/1/141 139/1/139
f 44/1/44 45/1/45 144/1/144 142/1/142
f 47/1/47 48/1/48 147/1/147 145/1/145
f 50/1/50 52/1/52 150/1/150 148/1/148
f 52/1/52 98/1/98 198/1/198 150/1/150
f 53/1/53 59/1/59 157/1/157 152/1/152
f 66/1/66 54/1/54 154/1/154 165/1/165
f 56/1/56 63/1/63 161/1/161 156/1/156
f 60/1/60 56/1/56 156/1/156 160/1/160
f 59/1/59 60/1/60 160/1/160 157/1/157
f 63/1/63 65/1/65 163/1/163 161/1/161
f 69/1/69 67/1/67 167/1/167 169/1/169
f 71/1/71 69/1/69 169/1/169 170/1/170
f 74/1/74 72/1/72 172/1/172 173/1/173
f 77/1/77 75/1/75 175/1/175 177/1/177
f 79/1/79 77/1/77 177/1/177 178/1/178
f 82/1/82 80/1/80 180/1/180 181/1/181
f 85/1/85 83/1/83 183/1/183 184/1/184
f 88/1/88 86/1/86 186/1/186 187/1/187
f 91/1/91 89/1/89 189/1/189 190/1/190
f 94/1/94 92/1/92 192/1/192 193/1/193
f 97/1/97 95/1/95 195/1/195 196/1/196
f 102/1/102 118/1/118 120/1/120 123/1/123 126/1/126 128/1/128 131/1/131 134/1/134 137/1/137 140/1/140 143/1/143 146/1/146 149/1/149 151/1/151 114/1/114 111/1/111 109/1/109 104/1/104 108/1/108 105/1/105
f 153/1/153 158/1/158 159/1/159 155/1/155 162/1/162 164/1/164 114/1/114 151/1/151 197/1/197 194/1/194 191/1/191 188/1/188 185/1/185 182/1/182 179/1/179 176/1/176 174/1/174 171/1/171 168/1/168 166/1/166
